<?xml version="1.0" encoding="UTF-8"?>
<svg id="Layer_1" data-name="Layer 1" xmlns="http://www.w3.org/2000/svg" baseProfile="tiny" version="1.2" viewBox="0 0 70 70">
  <ellipse cx="35" cy="35.11" rx="31" ry="31.11" fill="none" stroke="#0c70b4" stroke-miterlimit="10" stroke-width="7"/>
  <g>
    <path d="M23.78,34.73c.59.26,1.11.61,1.55,1.05.44.44.79.97,1.05,1.57.26.61.38,1.25.38,1.93v5.35h-11.13c-.61,0-1.17-.12-1.7-.34-.53-.23-.98-.54-1.36-.92s-.68-.84-.91-1.36c-.23-.52-.34-1.08-.34-1.67v-6.7c0-.86.16-1.67.49-2.43.33-.76.77-1.43,1.34-2,.57-.57,1.23-1.02,1.98-1.34.75-.33,1.56-.49,2.41-.49h6.8v1.89h-6.8c-.59,0-1.14.11-1.65.34-.51.23-.96.54-1.34.94-.38.4-.68.87-.91,1.4s-.34,1.09-.34,1.69v6.7c0,.34.06.65.19.94.12.29.29.54.5.77.21.22.45.4.73.52s.58.19.91.19h9.15v-3.46c0-.41-.08-.81-.23-1.17-.16-.37-.36-.7-.62-.98-.26-.28-.56-.5-.92-.67-.36-.16-.73-.24-1.12-.24h-4.89v-1.89h4.89c.67,0,1.3.13,1.89.39Z" fill="#0c70b4" stroke="#0c70b4" stroke-miterlimit="10"/>
    <path d="M30.99,31.2c.31-.76.73-1.43,1.27-2,.54-.57,1.16-1.02,1.89-1.34.72-.33,1.49-.49,2.32-.49h6.45v1.89h-6.45c-.56,0-1.08.11-1.56.34-.48.23-.9.54-1.26.94s-.64.87-.84,1.4c-.2.53-.3,1.09-.3,1.69v6.7c0,.34.05.65.16.94.11.29.26.54.45.77s.42.4.69.52c.26.13.54.19.84.19h8.26v1.89h-8.26c-.56,0-1.09-.12-1.59-.34-.5-.23-.94-.54-1.31-.92-.37-.38-.67-.84-.88-1.36-.22-.52-.33-1.08-.33-1.67v-6.7c0-.86.16-1.67.47-2.43Z" fill="#0c70b4" stroke="#0c70b4" stroke-miterlimit="10"/>
    <path d="M46.77,30.97c.3-.71.71-1.33,1.22-1.86.51-.53,1.12-.95,1.82-1.26.7-.31,1.44-.47,2.23-.47h6.22v1.89h-6.22c-.51,0-1,.1-1.46.31-.46.21-.85.49-1.19.86s-.6.79-.8,1.27c-.2.48-.3,1-.3,1.55v3.18h9.96v1.89h-9.96v6.32h-1.98v-11.4c0-.8.15-1.55.45-2.26Z" fill="#0c70b4" stroke="#0c70b4" stroke-miterlimit="10"/>
  </g>
</svg>